<?xml version="1.0" encoding="UTF-8"?>
<svg width="96px" height="96px" viewBox="0 0 96 96" version="1.1" xmlns="http://www.w3.org/2000/svg" xmlns:xlink="http://www.w3.org/1999/xlink">
    <title>Artboard</title>
    <g id="Artboard" stroke="none" stroke-width="1" fill="none" fill-rule="evenodd">
        <path d="M57.7934669,60.1391794 L57.7934669,9.6009333 C57.7934669,4.26708147 53.5263854,0 48.1925336,0 C42.8586817,0 38.5916003,4.26708147 38.5916003,9.6009333 L38.5916003,60.1391794 C29.3907058,65.4730313 26.323741,77.2075053 31.5242466,86.4083997 C36.7247521,95.6092942 48.5925725,98.676259 57.7934669,93.4757534 C66.9943613,88.2752479 70.0613261,76.4074275 64.8608206,67.2065331 C63.1273187,64.2729146 60.7270854,61.8726813 57.7934669,60.1391794 Z M48.1925336,82.8080497 C44.8588762,82.8080497 42.1919503,80.1411238 42.1919503,76.8074664 C42.1919503,74.4072331 43.6587595,72.2736924 45.7923002,71.3402683 L45.7923002,36.0034999 C45.7923002,34.6700369 46.8590706,33.6032666 48.1925336,33.6032666 C49.5259965,33.6032666 50.5927669,34.6700369 50.5927669,36.0034999 C50.5927669,36.0034999 50.5927669,36.0034999 50.5927669,36.0034999 L50.5927669,71.3402683 C53.6597317,72.6737313 54.9931947,76.2740812 53.6597317,79.2076998 C52.7263076,81.3412405 50.5927669,82.8080497 48.1925336,82.8080497 L48.1925336,82.8080497 Z" id="Shape" fill="#000000" fill-rule="nonzero"></path>
    </g>
</svg>